<svg
   width="50mm"
   height="13mm"
   version="1.1"
   viewBox="0 0 68 13"
   id="svg36"
   xmlns="http://www.w3.org/2000/svg"
   xmlns:svg="http://www.w3.org/2000/svg">
  <defs
     id="defs40" />
  <g
     aria-label="PROJECT CLOVER"
     transform="scale(0.81639217,1.2249015)"
     id="text14281"
     style="font-size:8.99997px;line-height:1.25;-inkscape-font-specification:'sans-serif, Normal';word-spacing:0px;fill:none;stroke-width:.4;stroke:#9A00FF">    <path
       d="m 4.231737,2.5948974 v 2.4653239 h 1.1162073 q 0.6196269,0 0.9580047,-0.3207997 0.3383778,-0.3207998 0.3383778,-0.9140595 0,-0.5888653 -0.3383778,-0.909665 Q 5.9675712,2.5948974 5.3479443,2.5948974 Z M 3.3440446,1.8654076 h 2.0038997 q 1.1030237,0 1.6655219,0.5009749 0.5668927,0.4965804 0.5668927,1.4589796 0,0.9711882 -0.5668927,1.4677686 Q 6.450968,5.7897111 5.3479443,5.7897111 H 4.231737 V 8.4264212 H 3.3440446 Z"
       id="path822" />
    <path
       d="m 11.882591,5.3502594 q 0.285644,0.096679 0.553709,0.4130846 0.27246,0.3164052 0.54492,0.8701143 l 0.900876,1.7929629 h -0.95361 l -0.839353,-1.6831 Q 11.763939,6.0841437 11.456323,5.8688124 11.153101,5.6534811 10.625759,5.6534811 H 9.6589655 V 8.4264212 H 8.7712731 V 1.8654076 h 2.0038999 q 1.124996,0 1.678705,0.4702133 0.553709,0.4702133 0.553709,1.4194289 0,0.6196269 -0.290038,1.0283169 -0.285643,0.4086901 -0.834958,0.5668927 z M 9.6589655,2.5948974 v 2.3290939 h 1.1162075 q 0.641599,0 0.966793,-0.2944327 0.329589,-0.2988271 0.329589,-0.8745088 0,-0.5756817 -0.329589,-0.8657198 -0.325194,-0.2944326 -0.966793,-0.2944326 z"
       id="path824" />
    <path
       d="m 17.687748,2.4674564 q -0.966794,0 -1.538081,0.7207007 -0.566893,0.7207008 -0.566893,1.964349 0,1.2392538 0.566893,1.9599545 0.571287,0.7207008 1.538081,0.7207008 0.966793,0 1.529292,-0.7207008 0.566892,-0.7207007 0.566892,-1.9599545 0,-1.2436482 -0.566892,-1.964349 -0.562499,-0.7207007 -1.529292,-0.7207007 z m 0,-0.7207008 q 1.379878,0 2.206047,0.9272431 0.826169,0.9228485 0.826169,2.4785074 0,1.5512645 -0.826169,2.4785075 -0.826169,0.9228486 -2.206047,0.9228486 -1.384273,0 -2.214837,-0.9228486 -0.826169,-0.9228485 -0.826169,-2.4785075 0,-1.5556589 0.826169,-2.4785074 0.830564,-0.9272431 2.214837,-0.9272431 z"
       id="path826" />
    <path
       d="m 22.108632,1.8654076 h 0.887692 v 6.1039838 q 0,1.1865196 -0.452635,1.7226506 -0.448241,0.536131 -1.445796,0.536131 H 20.759515 V 9.4811052 h 0.276855 q 0.588865,0 0.830564,-0.3295888 0.241698,-0.3295887 0.241698,-1.182125 z"
       id="path828" />
    <path
       d="m 24.762919,1.8654076 h 4.148424 v 0.7470678 h -3.260731 v 1.9423765 h 3.124501 v 0.7470678 h -3.124501 v 2.3774336 h 3.339833 v 0.7470679 h -4.227526 z"
       id="path830" />
    <path
       d="M 35.362494,2.370777 V 3.3068091 Q 34.914253,2.88933 34.404489,2.6827877 33.899119,2.4762454 33.327832,2.4762454 q -1.124996,0 -1.72265,0.6899391 -0.597655,0.6855447 -0.597655,1.9863216 0,1.2963825 0.597655,1.9863216 0.597654,0.6855447 1.72265,0.6855447 0.571287,0 1.076657,-0.2065423 0.509764,-0.2065423 0.958005,-0.6240214 v 0.927243 q -0.465819,0.3164052 -0.988767,0.4746078 -0.518553,0.1582027 -1.098629,0.1582027 -1.489741,0 -2.346672,-0.909665 -0.856931,-0.9140595 -0.856931,-2.4916911 0,-1.582026 0.856931,-2.491691 0.856931,-0.9140595 2.346672,-0.9140595 0.588865,0 1.107418,0.1582026 0.522948,0.1538081 0.979978,0.4658188 z"
       id="path832" />
    <path
       d="m 35.823917,1.8654076 h 5.550275 V 2.6124754 H 39.045098 V 8.4264212 H 38.153011 V 2.6124754 h -2.329094 z"
       id="path834" />
    <path
       d="M 50.005024,2.370777 V 3.3068091 Q 49.556783,2.88933 49.047019,2.6827877 48.54165,2.4762454 47.970363,2.4762454 q -1.124997,0 -1.722651,0.6899391 -0.597654,0.6855447 -0.597654,1.9863216 0,1.2963825 0.597654,1.9863216 0.597654,0.6855447 1.722651,0.6855447 0.571287,0 1.076656,-0.2065423 0.509764,-0.2065423 0.958005,-0.6240214 v 0.927243 q -0.465819,0.3164052 -0.988766,0.4746078 -0.518553,0.1582027 -1.098629,0.1582027 -1.489742,0 -2.346672,-0.909665 -0.856931,-0.9140595 -0.856931,-2.4916911 0,-1.582026 0.856931,-2.491691 0.85693,-0.9140595 2.346672,-0.9140595 0.588865,0 1.107418,0.1582026 0.522947,0.1538081 0.979977,0.4658188 z"
       id="path836" />
    <path
       d="m 51.376115,1.8654076 h 0.887692 v 5.8139457 h 3.194814 v 0.7470679 h -4.082506 z"
       id="path838" />
    <path
       d="m 58.732536,2.4674564 q -0.966794,0 -1.538081,0.7207007 -0.566892,0.7207008 -0.566892,1.964349 0,1.2392538 0.566892,1.9599545 0.571287,0.7207008 1.538081,0.7207008 0.966794,0 1.529292,-0.7207008 0.566893,-0.7207007 0.566893,-1.9599545 0,-1.2436482 -0.566893,-1.964349 Q 59.69933,2.4674564 58.732536,2.4674564 Z m 0,-0.7207008 q 1.379878,0 2.206048,0.9272431 0.826169,0.9228485 0.826169,2.4785074 0,1.5512645 -0.826169,2.4785075 -0.82617,0.9228486 -2.206048,0.9228486 -1.384273,0 -2.214836,-0.9228486 -0.82617,-0.9228485 -0.82617,-2.4785075 0,-1.5556589 0.82617,-2.4785074 0.830563,-0.9272431 2.214836,-0.9272431 z"
       id="path840" />
    <path
       d="M 64.687106,8.4264212 62.182232,1.8654076 h 0.927243 l 2.078606,5.5239076 2.083001,-5.5239076 h 0.922849 l -2.50048,6.5610136 z"
       id="path842" />
    <path
       d="m 69.151936,1.8654076 h 4.148424 v 0.7470678 h -3.260731 v 1.9423765 h 3.124501 v 0.7470678 h -3.124501 v 2.3774336 h 3.339833 v 0.7470679 h -4.227526 z"
       id="path844" />
    <path
       d="m 77.949755,5.3502594 q 0.285644,0.096679 0.553709,0.4130846 0.27246,0.3164052 0.54492,0.8701143 l 0.900876,1.7929629 h -0.95361 l -0.839353,-1.6831 Q 77.831103,6.0841437 77.523487,5.8688124 77.220265,5.6534811 76.692923,5.6534811 H 75.726129 V 8.4264212 H 74.838437 V 1.8654076 h 2.0039 q 1.124996,0 1.678705,0.4702133 0.553709,0.4702133 0.553709,1.4194289 0,0.6196269 -0.290038,1.0283169 -0.285643,0.4086901 -0.834958,0.5668927 z m -2.223626,-2.755362 v 2.3290939 h 1.116208 q 0.641599,0 0.966793,-0.2944327 0.329589,-0.2988271 0.329589,-0.8745088 0,-0.5756817 -0.329589,-0.8657198 -0.325194,-0.2944326 -0.966793,-0.2944326 z"
       id="path846" />
  </g>
</svg>
