<svg id="icons" width="24" height="24" fill="#ffffff" stroke="#ffffff" version="1.1" viewBox="0 0 192 192" xmlns="http://www.w3.org/2000/svg">
 <path d="m152.76 48.042a39.828 38.153 0 0 1-3.4444-1.9204 48.43 46.393 0 0 1-8.8462-7.1997c-6.5973-7.2311-9.0612-14.567-9.9688-19.703h0.0365c-0.75814-4.2632-0.44468-7.0216-0.39729-7.0216h-30.049v111.31c0 1.4944 0 2.9714-0.0656 4.4308 0 0.18156-0.0182 0.34916-0.02916 0.54468 0 0.0803 0 0.16411-0.01822 0.24791v0.0628a25.514 24.441 0 0 1-12.837 19.399 25.077 24.022 0 0 1-12.433 3.1424c-14 0-25.347-10.936-25.347-24.441s11.347-24.441 25.347-24.441a25.113 24.057 0 0 1 7.8037 1.1836l0.03645-29.308a55.818 53.47 0 0 0-43.01 12.053 58.971 56.491 0 0 0-12.866 15.199c-1.2684 2.095-6.0542 10.513-6.6337 24.176-0.36449 7.7548 2.0667 15.789 3.2257 19.11v0.0698c0.72898 1.9553 3.5538 8.6278 8.1573 14.253a61.063 58.495 0 0 0 13.016 11.763v-0.0698l0.0729 0.0698c14.547 9.4692 30.675 8.8477 30.675 8.8477 2.792-0.10824 12.145 0 22.766-4.8219 11.78-5.3456 18.487-13.31 18.487-13.31a57.757 55.328 0 0 0 10.074-16.037c2.7191-6.847 3.6267-15.059 3.6267-18.341v-59.05c0.36449 0.2095 5.2195 3.2856 5.2195 3.2856s6.9946 4.2947 17.907 7.0914c7.8292 1.9902 18.378 2.4092 18.378 2.4092v-28.575c-3.6959 0.38408-11.201-0.73324-18.884-4.4029z" fill="none" stroke="#ff00f9" stroke-width="4.8"/>
</svg>
