<svg
   id="icons"
   width="24"
   height="24"
   fill="#ffffff"
   stroke="#ffffff"
   version="1.1"
   viewBox="0 0 192 192"
   xmlns="http://www.w3.org/2000/svg"
   xmlns:svg="http://www.w3.org/2000/svg">
  <defs
     id="defs8" />
  <g
     id="SVGRepo_iconCarrier"
     transform="matrix(0.36449,0,0,0.34916,2.6986,6.6115)">
    <path
       d="m 412.19,118.66 a 109.27,109.27 0 0 1 -9.45,-5.5 132.87,132.87 0 0 1 -24.27,-20.62 C 360.37,71.83 353.61,50.82 351.12,36.11 h 0.1 C 349.14,23.9 350,16 350.13,16 h -82.44 v 318.78 c 0,4.28 0,8.51 -0.18,12.69 0,0.52 -0.05,1 -0.08,1.56 0,0.23 0,0.47 -0.05,0.71 v 0.18 a 70,70 0 0 1 -35.22,55.56 68.8,68.8 0 0 1 -34.11,9 c -38.41,0 -69.54,-31.32 -69.54,-70 0,-38.68 31.13,-70 69.54,-70 a 68.9,68.9 0 0 1 21.41,3.39 l 0.1,-83.94 a 153.14,153.14 0 0 0 -118,34.52 161.79,161.79 0 0 0 -35.3,43.53 c -3.48,6 -16.61,30.11 -18.2,69.24 -1,22.21 5.67,45.22 8.85,54.73 v 0.2 c 2,5.6 9.75,24.71 22.38,40.82 A 167.53,167.53 0 0 0 115,470.66 v -0.2 l 0.2,0.2 c 39.91,27.12 84.16,25.34 84.16,25.34 7.66,-0.31 33.32,0 62.46,-13.81 32.32,-15.31 50.72,-38.12 50.72,-38.12 a 158.46,158.46 0 0 0 27.64,-45.93 c 7.46,-19.61 9.95,-43.13 9.95,-52.53 V 176.49 c 1,0.6 14.32,9.41 14.32,9.41 0,0 19.19,12.3 49.13,20.31 21.48,5.7 50.42,6.9 50.42,6.9 v -81.84 c -10.14,1.1 -30.73,-2.1 -51.81,-12.61 z"
       id="path2"
       style="stroke:none" />
  </g>
</svg>
